<?xml version="1.0" standalone="no"?>
<!DOCTYPE svg PUBLIC "-//W3C//DTD SVG 20010904//EN"
 "http://www.w3.org/TR/2001/REC-SVG-20010904/DTD/svg10.dtd">
<svg version="1.0" xmlns="http://www.w3.org/2000/svg"
 width="30.000000pt" height="30.000000pt" viewBox="0 0 292.000000 292.000000"
 preserveAspectRatio="xMidYMid meet">

<g transform="translate(0.000000,292.000000) scale(0.100000,-0.100000)"
fill="#dddddd" stroke="none">
<path d="M1305 2859 c-290 -30 -565 -151 -790 -347 -228 -199 -382 -466 -446
-775 -79 -387 16 -805 256 -1122 276 -364 717 -571 1174 -552 384 16 730 188
979 486 102 121 190 272 246 423 l26 68 -336 0 -336 0 -65 -70 c-317 -342
-871 -329 -1168 28 -104 126 -163 279 -172 452 -8 146 13 244 77 375 81 163
190 273 345 349 128 63 205 81 350 80 144 0 214 -16 340 -79 151 -74 268 -189
344 -334 31 -60 71 -166 71 -188 0 -2 -113 -3 -250 -3 l-251 0 -30 35 c-17 19
-56 47 -87 62 -77 38 -193 40 -263 5 -181 -89 -221 -300 -83 -439 42 -43 64
-55 123 -73 54 -17 83 -20 119 -15 70 10 134 41 178 86 l38 39 557 0 557 0 4
58 c5 80 -9 253 -27 342 -68 319 -233 600 -470 800 -214 179 -455 281 -739
309 -121 12 -154 12 -271 0z"/>
</g>
</svg>
